<?xml version="1.0" encoding="utf-8"?>
<!-- Generator: Adobe Illustrator 19.2.0, SVG Export Plug-In . SVG Version: 6.00 Build 0)  -->
<svg version="1.1" id="Layer_1" xmlns="http://www.w3.org/2000/svg" xmlns:xlink="http://www.w3.org/1999/xlink" x="0px" y="0px"
	 viewBox="0 0 101 101.2" style="enable-background:new 0 0 101 101.2;" xml:space="preserve">
<style type="text/css">
	.st0{fill:url(#SVGID_1_);}
	.st1{fill:#F4F0D2;}
	.st2{fill:none;stroke:#8DC63F;stroke-miterlimit:10;}
</style>
<g>
	
		<linearGradient id="SVGID_1_" gradientUnits="userSpaceOnUse" x1="4.0386" y1="53.4385" x2="96.7486" y2="53.4385" gradientTransform="matrix(1 0 0 -1 0 103.8689)">
		<stop  offset="0" style="stop-color:#8DC63F"/>
		<stop  offset="1" style="stop-color:#006838"/>
	</linearGradient>
	<circle class="st0" cx="50.4" cy="50.4" r="46.4"/>
	<g>
		<path class="st1" d="M50.2,99.4c0,0,35.5-2.7,34-47.1c-0.2-9.5,3.3-10,3.3-10s-27.9-2.2-39,22.3c0,0-8.7,17.3-1.2,34.3
			c21.4-13.7,33.1-49.5,33.1-49.5S75,87.3,50.2,99.4z"/>
		<path class="st1" d="M41.9,76.3c0,0,10.7-20.9,5.5-30c-5.2-9.1-12.1-22-11.2-24.8c0.9-2.7-14.5,17.2-12.5,33
			c2,15.8,15.9,21.8,15.9,21.8s-14.2-24.4-6.8-40.7C32.2,67,41.9,76.3,41.9,76.3z"/>
		<path class="st1" d="M44.3,99.4c0,0-2.3-19-8.1-23.1c-5.8-4-19.3-13.6-19.7-16.4c-0.4-2.9-4.4,24.1,7,32.5c11.4,8.3,18.3,7,18.3,7
			S20.3,85.6,19.3,74.1C34.1,93.7,44.3,99.4,44.3,99.4z"/>
	</g>
	<circle class="st2" cx="50.4" cy="50.7" r="49.1"/>
</g>
</svg>
