<?xml version="1.0" encoding="utf-8"?>
<!-- Generator: Adobe Illustrator 19.2.0, SVG Export Plug-In . SVG Version: 6.00 Build 0)  -->
<svg version="1.1" id="_x2014_ÎÓÈ_x5F_1" xmlns="http://www.w3.org/2000/svg" xmlns:xlink="http://www.w3.org/1999/xlink"
	 x="0px" y="0px" viewBox="0 0 179.8 135.4" style="enable-background:new 0 0 179.8 135.4;" xml:space="preserve">
<style type="text/css">
	.st0{fill:#1DA841;}
	.st1{fill-rule:evenodd;clip-rule:evenodd;fill:#1DA841;}
</style>
<g>
	<g>
		<polygon class="st0" points="89.9,14.9 90.5,15.1 90.5,6.1 89.4,6.1 89.4,15.1 		"/>
		<polygon class="st0" points="56.8,27.4 50.7,20.2 49.9,20.9 55.8,27.8 		"/>
		<polygon class="st0" points="81.7,18 79.8,6.9 78.7,7.1 80.7,18.4 		"/>
		<polygon class="st0" points="99.2,18.4 101.1,7.1 100.1,6.9 98.1,18 		"/>
		<polygon class="st0" points="94.9,16.8 96.4,0.1 95.3,0 93.9,16.4 		"/>
		<polygon class="st0" points="73.5,21.1 69.4,9.6 68.3,10 72.5,21.5 		"/>
		<polygon class="st0" points="69.5,22.6 61.7,5.9 60.7,6.4 68.5,23 		"/>
		<polygon class="st0" points="65.4,24.2 59.6,14.1 58.7,14.6 64.4,24.6 		"/>
		<polygon class="st0" points="61.2,25.8 51.4,11.8 50.5,12.4 60.2,26.2 		"/>
		<polygon class="st0" points="103.3,20 108,2.2 107,2 102.2,19.6 		"/>
		<polygon class="st0" points="77.6,19.6 72.9,2 71.8,2.2 76.6,20 		"/>
		<polygon class="st0" points="86,16.4 84.5,0 83.5,0.1 84.9,16.8 		"/>
		<polygon class="st0" points="107.3,21.5 111.5,10 110.5,9.6 106.3,21.1 		"/>
		<polygon class="st0" points="132.7,31.1 133.8,31.5 137.4,28.5 136.7,27.7 		"/>
		<polygon class="st0" points="136.7,107.7 137.4,106.9 133.8,103.8 132.7,104.3 		"/>
		<polygon class="st0" points="47.2,104.3 46,103.8 42.4,106.9 43.1,107.7 		"/>
		<polygon class="st0" points="139.5,33.7 145.8,29.2 145.2,28.3 138.2,33.2 		"/>
		<polygon class="st0" points="43.1,27.7 42.4,28.5 46,31.5 47.2,31.1 		"/>
		<polygon class="st0" points="111.3,23 119.1,6.4 118.1,5.9 110.3,22.6 		"/>
		<polygon class="st0" points="115.4,24.6 121.2,14.6 120.2,14.1 114.4,24.2 		"/>
		<polygon class="st0" points="123,27.4 124.1,27.8 129.9,20.9 129.1,20.2 		"/>
		<polygon class="st0" points="119.7,26.2 129.3,12.4 128.4,11.8 118.6,25.8 		"/>
		<polygon class="st0" points="128.8,29.6 138.3,20.1 137.5,19.3 127.6,29.2 		"/>
		<polygon class="st0" points="51.1,105.8 41.5,115.3 42.3,116.1 52.2,106.2 		"/>
		<polygon class="st0" points="102.2,115.8 107,133.4 108,133.1 103.3,115.4 		"/>
		<polygon class="st0" points="106.3,114.3 110.5,125.7 111.5,125.4 107.3,113.9 		"/>
		<polygon class="st0" points="98.1,117.4 100.1,128.4 101.2,128.2 99.2,117 		"/>
		<polygon class="st0" points="110.3,112.7 118.1,129.5 119.1,129 111.4,112.4 		"/>
		<polygon class="st0" points="93.9,119 95.3,135.4 96.4,135.3 94.9,118.6 		"/>
		<polygon class="st0" points="89.9,120.5 89.4,120.3 89.4,129.3 90.5,129.3 90.5,120.3 		"/>
		<polygon class="st0" points="127.6,106.2 137.5,116.1 138.3,115.3 128.8,105.8 		"/>
		<polygon class="st0" points="114.4,111.2 120.2,121.3 121.2,120.7 115.4,110.8 		"/>
		<polygon class="st0" points="138.2,102.2 145.2,107.1 145.8,106.2 139.5,101.7 		"/>
		<polygon class="st0" points="123,107.9 129.1,115.2 129.9,114.5 124.1,107.5 		"/>
		<polygon class="st0" points="52.2,29.2 42.3,19.3 41.5,20.1 51.1,29.6 		"/>
		<polygon class="st0" points="118.6,109.6 128.4,123.6 129.3,123 119.7,109.2 		"/>
		<polygon class="st0" points="56.8,108 55.8,107.5 49.9,114.5 50.7,115.2 		"/>
		<polygon class="st0" points="60.2,109.2 50.5,123 51.4,123.6 61.2,109.6 		"/>
		<polygon class="st0" points="40.4,101.7 34,106.2 34.6,107.1 41.6,102.2 		"/>
		<polygon class="st0" points="41.6,33.2 34.6,28.3 34,29.2 40.4,33.7 		"/>
		<polygon class="st0" points="64.4,110.8 58.7,120.8 59.6,121.3 65.4,111.2 		"/>
		<polygon class="st0" points="84.9,118.6 83.5,135.3 84.5,135.4 86,119 		"/>
		<polygon class="st0" points="68.5,112.4 60.7,129 61.7,129.5 69.5,112.8 		"/>
		<polygon class="st0" points="80.7,117 78.7,128.2 79.8,128.4 81.7,117.4 		"/>
		<polygon class="st0" points="76.6,115.4 71.8,133.1 72.9,133.4 77.6,115.8 		"/>
		<polygon class="st0" points="72.5,113.9 68.3,125.4 69.4,125.7 73.5,114.3 		"/>
	</g>
	<g>
		<polygon class="st0" points="9.7,52.2 9.7,45.9 89.9,15.5 170.1,45.9 170.1,52.2 171.2,52.6 171.2,45.1 89.9,14.3 8.6,45.1 
			8.6,52.6 		"/>
		<polygon class="st0" points="170.1,83.2 170.1,89.5 89.9,119.9 9.7,89.5 9.7,83.2 8.6,82.8 8.6,90.3 89.7,121 89.9,121.1 
			170.9,90.4 171.2,90.3 171.2,82.8 		"/>
	</g>
	<path class="st0" d="M89.9,114.2l-0.2-0.1L0,80.1V55.3l89.9-34.1l0.2,0.1l89.7,34.1v24.8l-0.3,0.1L89.9,114.2z M1.1,79.3l88.8,33.7
		l88.8-33.7V56L89.9,22.3L1.1,56V79.3z"/>
	<polygon class="st1" points="15.6,64.6 18.7,67.7 15.6,70.8 12.5,67.7 15.6,64.6 	"/>
	<polygon class="st1" points="164.2,64.6 167.3,67.7 164.2,70.8 161.1,67.7 164.2,64.6 	"/>
	<g>
		<path class="st0" d="M90,117.6l-0.2-0.1L12.7,88.3l0.4-1L90,116.5l76.6-29.1l0.4,1L90,117.6z M13.1,48l-0.4-1L90,17.7l0.2,0.1
			L167,46.9l-0.4,1L90,18.8L13.1,48z"/>
	</g>
</g>
<g>
	<path d="M31.5,82.2c-0.6,0-0.9-0.4-0.9-1.2c0-4.7-0.1-9.1-0.3-13.1c-0.7-0.1-1.3-0.2-1.9-0.2c-0.6,0-1.1,0.1-1.6,0.3
		c0,1.4,0.1,3.5,0.3,6.3s0.3,4.9,0.3,6.3c0,0.2-0.1,0.5-0.2,0.7c-0.1,0.2-0.3,0.3-0.6,0.3c-0.7,0-1.2-2.1-1.5-6.4
		c-0.4-5.8-0.6-12.7-0.6-20.9c0-0.4,0.2-0.7,0.6-0.7c0.2,0,0.5,0.1,0.7,0.2c0.3,0.1,0.5,0.3,0.6,0.4c-0.1,0.9-0.1,1.8-0.1,2.8
		l0.3,7.6l0,1.4c0,0.4,0,0.7,0.1,1l3.6-0.3l-0.1-12.2v-1c0.9,0,1.5,0.4,1.7,1.3c0.1,0.4,0.1,1.5,0.1,3.1c0,1.7,0.1,5.2,0.4,10.7
		s0.4,9.5,0.4,12.2c0,0.3-0.1,0.6-0.3,0.9S31.9,82.2,31.5,82.2z"/>
	<path d="M44.3,70.4L44,75.1v0.2c-0.2,0.7-0.2,1.4-0.2,2.2c0,0.8-0.1,1.6-0.4,2.3c-0.3,0.7-0.7,1.4-1.3,2c-0.6,0.6-1.2,0.9-1.9,0.9
		c-0.7,0-1.3-0.2-1.9-0.7c-0.6-0.5-1-1-1.4-1.8s-0.7-1.6-1-2.6c-0.3-1-0.5-2-0.6-2.9c-0.2-0.9-0.3-2-0.4-3c-0.1-1.6-0.2-2.9-0.2-3.7
		c0-0.9,0-1.7,0-2.3c0-0.6,0-1.2,0-1.7c0-0.3,0-0.5,0-0.8s0-0.6,0-1c0-0.7,0-1.4,0.1-1.9c0-0.6,0.1-1.2,0.2-1.8
		c0.1-0.7,0.2-1.2,0.3-1.7c0.1-0.5,0.3-1,0.5-1.5c0.2-0.5,0.5-0.9,0.7-1.2c0.6-0.7,1.3-1.1,2.1-1.1s1.5,0.1,2,0.4
		c0.6,0.3,1,0.7,1.4,1.4s0.7,1.2,1,1.8c0.3,0.6,0.5,1.4,0.7,2.5c0.2,1.1,0.3,1.9,0.4,2.6c0.1,0.7,0.2,1.6,0.2,2.8
		c0,1.7,0.1,3,0.1,3.9V70.4z M41,56.8c-0.2-0.6-0.6-1.1-0.9-1.5c-0.4-0.3-0.7-0.5-1.1-0.5s-0.7,0.1-0.9,0.4
		c-0.2,0.3-0.4,0.6-0.6,1.1c-0.2,0.5-0.3,1-0.4,1.5s-0.2,1.1-0.3,1.8c-0.1,0.7-0.1,1.3-0.2,1.9c0,0.6-0.1,1.2-0.1,1.9
		c0,1.1,0,2-0.1,2.6v0.2c0,1.7,0.1,3.4,0.4,5.4s0.5,3.5,0.8,4.7s0.6,2.3,1.1,3.1s1,1.3,1.5,1.3c0.5,0,0.9-0.5,1.3-1.4
		c0.3-0.9,0.6-2.1,0.7-3.5c0.2-2.5,0.4-4.2,0.4-5.2c0-1,0-1.7,0-2.2c0-0.5,0-1.1-0.1-2c0-0.9-0.1-1.7-0.2-2.5
		c-0.1-0.8-0.2-1.6-0.3-2.5s-0.3-1.8-0.5-2.5C41.5,58.1,41.2,57.4,41,56.8z"/>
	<path d="M49,67.5l0,1.2v0.2c0.1,2.2,0.1,5.4,0.1,9.7v0.9H52c0.5,0.4,0.8,0.7,0.8,1c0,0.3-0.1,0.6-0.3,0.8c-0.2,0.2-0.4,0.3-0.6,0.3
		c-0.2,0-0.4,0-0.7-0.1c-0.2,0-0.4,0.1-0.7,0.1l-1.2-0.1c-0.3,0.3-0.6,0.5-1,0.5s-0.7-0.1-1-0.4c-0.3-0.2-0.4-0.5-0.4-0.8l0.2-1.6
		c0-2.8-0.1-7-0.4-12.7c-0.2-5.6-0.4-9.9-0.4-12.7c0-0.2,0.1-0.4,0.3-0.6c0.2-0.1,0.4-0.2,0.7-0.2c0.3,0,0.5,0.1,0.7,0.3
		s0.3,0.5,0.3,0.8L49,67.5z"/>
	<path d="M58.8,55.4l-0.7,0c-0.2,0-0.4,0.1-0.5,0.2c-0.1,0.1-0.2,0.3-0.2,0.6c0,2.4,0.2,6,0.5,10.9c0.3,4.8,0.5,8.4,0.5,10.9v1.4
		c0.3,0,0.5-0.1,0.8-0.1c1,0,1.5,0.4,1.5,1.3v0.2l-0.9,0.6l-2.5,0.1c-2.1,0-3.2-0.4-3.2-1.1c0-0.6,0.4-0.9,1.1-0.9l0.8,0.1
		c0.4,0,0.5-0.3,0.5-0.9c0-1.9-0.1-4.8-0.3-8.6c-0.2-3.8-0.3-6.7-0.3-8.6l0.1-3.8c0-0.8,0-1.5-0.1-2.1c-0.3,0.1-0.6,0.2-0.9,0.2
		c-0.6,0-0.9-0.3-0.9-0.9c0-0.3,0.2-0.6,0.6-0.8s0.8-0.4,1.4-0.5c1-0.2,1.8-0.3,2.3-0.3c0.5,0,0.9,0.1,1.1,0.3s0.3,0.4,0.3,0.7
		s-0.1,0.5-0.2,0.7C59.2,55.3,59,55.4,58.8,55.4z"/>
	<path d="M71.8,67.9l0.1,0.8c0,1.8-0.5,3.8-1.4,6.2c-1.1,2.7-2.3,4.6-3.8,5.8c-0.8,0.7-1.7,1-2.5,1c-0.5,0-0.9-0.1-1.3-0.3
		c-0.4-0.2-0.6-0.5-0.6-1c0.5-0.6,0.8-2,0.8-4.4c0-1.4-0.1-3.4-0.3-6.1c-0.2-2.7-0.3-4.8-0.3-6.1l0.1-4.1c0-0.7-0.1-1.5-0.4-2.6
		c-0.3-1.1-0.4-1.9-0.4-2.3c0-0.9,0.9-1.3,2.8-1.3h0.6c2.5,0,4.4,1.4,5.5,4.2c0.8,2,1.2,4.7,1.2,8.2v1.7
		C71.8,67.7,71.8,67.8,71.8,67.9z M65,76v3.6c0.9-0.6,1.7-1.4,2.4-2.5c0.7-1.1,1.2-2.3,1.6-3.5c0.7-2.5,1-4.9,1-7.3
		c0-2.8-0.4-5-1.1-6.6c-0.7-1.7-1.6-2.8-2.6-3.3c-0.7-0.3-1.4-0.5-2.2-0.5v0c0,2.2,0.1,5.6,0.4,10.1C64.8,70.3,65,73.7,65,76z"/>
	<path d="M81.4,81.6c-0.8,0-1.1-0.3-1.1-1v-4.8c-0.4-0.2-1-0.4-1.9-0.6c-0.9-0.2-1.7-0.3-2.4-0.3c-0.3,0.4-0.5,1.1-0.6,1.9
		c-0.2,0.8-0.3,1.7-0.5,2.5s-0.4,1.5-0.7,2c-1,0-1.5-0.2-1.6-0.7c0.3-0.5,0.9-3,1.7-7.4c0.8-4.5,1.4-8,1.9-10.5
		c0.5-2.5,1-4.6,1.6-6.4c0.6-1.7,1.1-2.6,1.6-2.6s0.9,0.1,1.2,0.3c0,0.9,0.2,3.3,0.7,7.2c0.5,3.9,0.7,6.4,0.7,7.6
		c0,1.1,0.1,3,0.4,5.7s0.4,4.6,0.4,6C82.6,81.2,82.2,81.6,81.4,81.6z M79.8,69.5c-0.2-2.2-0.4-4.3-0.6-6.3c-0.2-2-0.3-3.2-0.3-3.6
		c0-0.4,0-0.7,0-0.7c-0.4,0.4-0.9,2.6-1.7,6.7c-0.7,4-1.1,6.6-1.2,7.7c1,0.3,1.9,0.4,2.6,0.4s1.2,0,1.5-0.1
		C80.2,73,80,71.7,79.8,69.5z"/>
	<path d="M87,81.2l0.2-7.2c0-0.7-0.1-1.8-0.4-3.2c-0.2-1.4-0.4-2.6-0.4-3.4c0-0.9-0.1-1.9-0.4-3.2c-0.3-1.2-0.6-2.4-1-3.3
		c-1-2.6-1.4-4.8-1.4-6.7c0-0.2,0.1-0.3,0.3-0.5c0.2-0.1,0.4-0.2,0.7-0.2c0.2,0,0.5,0.3,0.7,0.9c0.3,0.6,0.5,1.3,0.7,2.2
		s0.4,1.8,0.6,2.6c0.2,0.9,0.4,1.7,0.5,2.6c0.2,0.8,0.3,1.4,0.3,1.6c0-0.2,0.1-0.7,0.2-1.6s0.1-1.7,0.2-2.5c0.1-0.9,0.2-1.7,0.4-2.6
		c0.3-2,0.8-3,1.5-3c0.7,0,1,0.1,1,0.4c0,1.4-0.3,3.5-0.9,6.2c-0.6,2.8-0.9,4.8-0.9,6.3l-0.1,1.3v0.6l0.2,9.9l0.1,1.8V81
		c0,0.3-0.1,0.6-0.4,0.8c-0.2,0.2-0.5,0.3-0.8,0.3c-0.3,0-0.5-0.1-0.7-0.3C87.1,81.6,87,81.4,87,81.2z"/>
	<path d="M103.3,67.5l0,1.2v0.2c0.1,2.2,0.1,5.4,0.1,9.7v0.9h2.8c0.5,0.4,0.8,0.7,0.8,1c0,0.3-0.1,0.6-0.3,0.8
		c-0.2,0.2-0.4,0.3-0.6,0.3s-0.4,0-0.7-0.1c-0.2,0-0.4,0.1-0.7,0.1l-1.2-0.1c-0.3,0.3-0.6,0.5-1,0.5s-0.7-0.1-1-0.4
		c-0.3-0.2-0.4-0.5-0.4-0.8l0.2-1.6c0-2.8-0.1-7-0.4-12.7c-0.2-5.6-0.4-9.9-0.4-12.7c0-0.2,0.1-0.4,0.3-0.6c0.2-0.1,0.4-0.2,0.7-0.2
		c0.3,0,0.5,0.1,0.7,0.3s0.3,0.5,0.3,0.8L103.3,67.5z"/>
	<path d="M113.1,55.4l-0.7,0c-0.2,0-0.4,0.1-0.5,0.2c-0.1,0.1-0.2,0.3-0.2,0.6c0,2.4,0.2,6,0.5,10.9c0.3,4.8,0.5,8.4,0.5,10.9v1.4
		c0.3,0,0.5-0.1,0.8-0.1c1,0,1.5,0.4,1.5,1.3v0.2l-0.9,0.6l-2.5,0.1c-2.1,0-3.2-0.4-3.2-1.1c0-0.6,0.4-0.9,1.1-0.9l0.8,0.1
		c0.4,0,0.5-0.3,0.5-0.9c0-1.9-0.1-4.8-0.3-8.6c-0.2-3.8-0.3-6.7-0.3-8.6l0.1-3.8c0-0.8,0-1.5-0.1-2.1c-0.3,0.1-0.6,0.2-0.9,0.2
		c-0.6,0-0.9-0.3-0.9-0.9c0-0.3,0.2-0.6,0.6-0.8c0.4-0.2,0.8-0.4,1.4-0.5c1-0.2,1.8-0.3,2.3-0.3s0.9,0.1,1.1,0.3
		c0.2,0.2,0.3,0.4,0.3,0.7s-0.1,0.5-0.2,0.7C113.6,55.3,113.4,55.4,113.1,55.4z"/>
	<path d="M125,74.9l-1.5,0.1c-0.8,0-1.3-0.4-1.3-1.1c0-0.6,0.8-1,2.4-1.2c0.3,0,0.7-0.1,1-0.1c0.4,0,0.7,0.2,1,0.6s0.4,0.9,0.4,1.6
		c0,0.6,0.1,1.7,0.4,3.2c0.2,1.5,0.4,2.4,0.4,3c0,0.9-0.3,1.4-0.9,1.4c-0.6,0-1-0.3-1.2-0.8v0c-0.1,0.1-0.4,0.2-0.8,0.4
		c-0.8,0.4-1.5,0.6-2.2,0.6c-0.5,0-1.1-0.1-1.6-0.3c-1.1-0.4-2-1.2-2.6-2.3c-0.7-1.1-1.1-2.2-1.3-3.2c-0.2-1-0.3-1.8-0.4-2.4
		c-0.1-0.6-0.2-1.3-0.2-2.1c-0.1-1-0.1-2.2-0.1-3.5l0-2.7c0-2.4,0.1-4.1,0.2-5.2c0.2-1,0.3-1.9,0.5-2.6c0.2-0.7,0.4-1.3,0.6-1.8
		s0.5-1,0.8-1.5c0.3-0.5,0.7-0.9,1.1-1.2c0.9-0.7,1.9-1,3-1c1.1,0,1.7,0.4,1.7,1.1c0,0.3-0.1,0.5-0.3,0.6c-0.2,0.2-0.4,0.2-0.7,0.2
		l-1.1-0.2c-0.9,0-1.7,0.6-2.2,1.7c-0.6,1.2-0.9,2.4-1.1,3.5s-0.3,2-0.3,2.7c-0.1,0.7-0.2,1.4-0.2,2.3c0,1.2-0.1,2.3-0.1,3.5l0,2.3
		c0,2.4,0.1,4.1,0.3,5.1c0.2,1,0.4,1.8,0.7,2.4c0.2,0.6,0.5,1.1,0.8,1.5c1,0.8,1.9,1.2,2.7,1.3c1.1,0,2-0.5,2.7-1.6
		C125.6,76.9,125.4,75.5,125,74.9z"/>
	<path d="M135.5,82.2c-0.6,0-0.9-0.4-0.9-1.2c0-4.7-0.1-9.1-0.3-13.1c-0.7-0.1-1.3-0.2-1.9-0.2c-0.6,0-1.1,0.1-1.6,0.3
		c0,1.4,0.1,3.5,0.3,6.3c0.2,2.8,0.3,4.9,0.3,6.3c0,0.2-0.1,0.5-0.2,0.7c-0.1,0.2-0.3,0.3-0.6,0.3c-0.7,0-1.2-2.1-1.5-6.4
		c-0.4-5.8-0.6-12.7-0.6-20.9c0-0.4,0.2-0.7,0.6-0.7c0.2,0,0.5,0.1,0.7,0.2c0.3,0.1,0.5,0.3,0.6,0.4c-0.1,0.9-0.1,1.8-0.1,2.8
		l0.3,7.6l0,1.4c0,0.4,0,0.7,0.1,1l3.6-0.3l-0.1-12.2v-1c0.9,0,1.5,0.4,1.7,1.3c0.1,0.4,0.1,1.5,0.1,3.1c0,1.7,0.1,5.2,0.4,10.7
		c0.2,5.4,0.4,9.5,0.4,12.2c0,0.3-0.1,0.6-0.3,0.9C136.1,82,135.9,82.2,135.5,82.2z"/>
	<path d="M143.5,60l-0.1,4.8l0.3,8.5l0.3,6.7c0,1.2-0.4,1.8-1.1,1.8c-0.4,0-0.7-0.2-0.9-0.6c-0.2-0.4-0.3-0.8-0.3-1.3l0.3-5.9
		c0-1.3-0.1-3.2-0.3-5.8c-0.2-2.6-0.3-4.5-0.3-5.8l0.1-3.2c0-1.8-0.1-2.9-0.3-3.5l-2,0.2c-0.3,0-0.6-0.1-0.8-0.3
		c-0.2-0.2-0.4-0.4-0.4-0.7c0-0.3,0.3-0.5,0.9-0.8c0.6-0.2,1.3-0.4,2.2-0.5c1.5-0.2,2.7-0.3,3.8-0.3c0.3,0,0.6,0.1,0.8,0.3
		c0.2,0.2,0.4,0.5,0.4,0.8s-0.1,0.5-0.3,0.7s-0.5,0.3-0.8,0.3l-1.3-0.1c-0.2,0-0.3,0-0.4,0C143.5,56.9,143.5,58.4,143.5,60z"/>
	<path d="M147.3,81.2c0-0.7,0.3-1,0.8-1c0.3,0,0.6,0.1,1.1,0.3c0.5,0.2,0.8,0.3,1.2,0.3c0.3,0,0.7-0.2,1.1-0.6
		c0.4-0.4,0.7-0.9,0.9-1.6c0.4-1.3,0.7-2.4,0.7-3.5s-0.2-2.1-0.5-3.3c-0.4-1.2-0.8-2.3-1.3-3.3c-0.5-1-1-2.1-1.6-3.1
		c-1.3-2.5-1.9-4.7-1.9-6.8c0-1.9,0.6-3.5,1.8-4.6c0.7-0.6,1.4-0.9,2.3-0.9c0.4,0,0.9,0.1,1.3,0.4c0.4,0.2,0.7,0.6,0.9,1l-0.6,0.8
		c-0.6,0-1.1-0.1-1.5-0.4c-0.5,0-0.9,0.3-1.2,0.7c-0.6,0.7-0.9,1.6-0.9,2.6s0.1,2.1,0.4,3.1c0.3,1,0.6,1.9,1,2.7
		c0.4,0.8,0.8,1.6,1.3,2.6c0.5,0.9,0.9,1.8,1.3,2.6c0.9,2,1.4,4.1,1.4,6.3c0,1.6-0.4,3.1-1.2,4.6c-0.4,0.7-0.9,1.3-1.6,1.7
		c-0.7,0.5-1.4,0.7-2.3,0.7c-0.9,0-1.6-0.1-2.1-0.4C147.6,81.8,147.3,81.5,147.3,81.2z"/>
</g>
</svg>
