<?xml version="1.0" encoding="utf-8"?>
<!-- Svg Vector Icons : http://www.onlinewebfonts.com/icon -->
<!DOCTYPE svg PUBLIC "-//W3C//DTD SVG 1.1//EN" "http://www.w3.org/Graphics/SVG/1.1/DTD/svg11.dtd">
<svg version="1.1" xmlns="http://www.w3.org/2000/svg" xmlns:xlink="http://www.w3.org/1999/xlink" x="0px" y="0px" viewBox="0 0 1000 1000" enable-background="new 0 0 1000 1000" xml:space="preserve">
<metadata> Svg Vector Icons : http://www.onlinewebfonts.com/icon </metadata>
<g><g><g id="envelope"><g><path d="M989.9,132.1c0.1-7.9-2.7-15.7-8.7-21.7c-6.4-6.4-14.9-9-23.3-8.4H42.1c-8.4-0.6-16.9,2.1-23.3,8.4c-6,6-8.9,13.9-8.7,21.7c0,0.2-0.1,0.3-0.1,0.4v735c0,16.9,13.7,30.6,30.6,30.6h918.8c16.9,0,30.6-13.7,30.6-30.6v-735C990,132.4,989.9,132.2,989.9,132.1z M877.7,163.1L500,490.6L122.3,163.1H877.7z M928.8,806.3c0,16.9-13.7,30.6-30.6,30.6H101.9c-16.9,0-30.6-13.7-30.6-30.6V198.4l405,351.1c0.7,0.9,1,1.9,1.8,2.7c6.1,6.1,14,8.8,22,8.7c7.9,0.2,15.9-2.6,22-8.7c0.8-0.8,1.1-1.8,1.8-2.7l405-351.1V806.3z"/></g></g></g><g></g><g></g><g></g><g></g><g></g><g></g><g></g><g></g><g></g><g></g><g></g><g></g><g></g><g></g><g></g></g>
</svg>