<?xml version="1.0" encoding="utf-8"?>
<!-- Generator: Adobe Illustrator 15.0.2, SVG Export Plug-In . SVG Version: 6.00 Build 0)  -->
<!DOCTYPE svg PUBLIC "-//W3C//DTD SVG 1.1//EN" "http://www.w3.org/Graphics/SVG/1.1/DTD/svg11.dtd">
<svg version="1.1" id="Layer_1" xmlns="http://www.w3.org/2000/svg" xmlns:xlink="http://www.w3.org/1999/xlink" x="0px" y="0px"
	 width="576px" height="288px" viewBox="0 0 576 288" enable-background="new 0 0 576 288" xml:space="preserve">
<g>
	<g>
		<path fill="#939598" d="M393.176,167.359h9.735l-0.116,0.463h-10.315v-16.227h0.696V167.359z"/>
		<path fill="#939598" d="M415.987,163.186h-9.04l-1.971,4.637h-0.579l6.953-16.227h0.465l6.954,16.227h-0.811L415.987,163.186z
			 M407.18,162.721h8.576l-4.242-9.967h-0.093L407.18,162.721z"/>
		<path fill="#939598" d="M421.438,167.822h-0.465v-16.227h0.697l11.01,15.299h0.116v-15.299h0.464v16.227h-0.696l-11.012-15.299
			h-0.114V167.822z"/>
		<path fill="#939598" d="M440.333,151.596c5.216,0,8.693,3.477,8.693,8.113c0,4.635-3.478,8.113-8.693,8.113h-4.057v-16.227
			H440.333z M436.973,152.059v15.301h3.36c4.753,0,7.998-3.248,7.998-7.65c0-4.405-3.245-7.65-7.998-7.65H436.973z"/>
		<path fill="#939598" d="M456.842,151.131c3.477,0,5.331,2.898,5.331,2.898l-0.349,0.23c0,0-1.737-2.664-4.982-2.664
			c-2.898,0-4.753,1.854-4.753,3.708c0,4.405,10.432,3.245,10.432,8.345c0,2.434-2.202,4.637-5.796,4.637
			c-4.52,0-6.373-3.592-6.373-3.592l0.347-0.232c0,0,1.739,3.361,6.026,3.361c3.13,0,5.1-1.971,5.1-4.174
			c0-4.404-10.431-3.244-10.431-8.345C451.394,153.219,453.479,151.131,456.842,151.131z"/>
		<path fill="#939598" d="M478.679,164.693c0,0-1.854,3.592-6.606,3.592c-4.52,0-7.996-3.477-7.996-8.576s3.477-8.578,7.996-8.578
			c4.289,0,6.26,3.361,6.26,3.361l-0.349,0.232c0,0-1.853-3.129-5.911-3.129c-4.057,0-7.301,3.245-7.301,8.113
			c0,4.867,3.244,8.113,7.301,8.113c4.521,0,6.26-3.361,6.26-3.361L478.679,164.693z"/>
		<path fill="#939598" d="M491.248,163.186h-9.041l-1.971,4.637h-0.579l6.953-16.227h0.465l6.953,16.227h-0.812L491.248,163.186z
			 M482.438,162.721h8.577l-4.241-9.967h-0.094L482.438,162.721z"/>
		<path fill="#939598" d="M497.394,161.795v6.027h-0.695v-16.227h5.795c3.478,0,5.796,2.318,5.796,5.1s-2.318,5.1-5.796,5.1H497.394
			z M507.594,156.695c0-2.55-2.087-4.637-5.101-4.637h-5.1v9.273h5.1C505.507,161.332,507.594,159.244,507.594,156.695z"/>
		<path fill="#939598" d="M511.327,167.359h10.2v0.463h-10.896v-16.227h10.431l-0.116,0.463h-9.619v7.186h7.186l-0.116,0.465h-7.069
			V167.359z"/>
		<path d="M401.764,185.557l2.959,3.186h-0.796l-2.504-2.73c0,0-1.82,3.186-5.349,3.186c-3.074,0-5.123-2.047-5.123-4.551
			c0-3.414,3.985-5.35,3.985-5.35v-0.113c0,0-1.708-1.709-1.708-3.416c0-1.818,1.593-3.412,4.325-3.412
			c2.958,0,4.324,2.502,4.324,2.502l-0.342,0.229c0,0-1.479-2.277-3.982-2.277c-2.277,0-3.643,1.367-3.643,2.959
			c0,1.707,1.821,3.416,1.821,3.416l5.69,6.031c0,0,0.909-1.48,0.909-3.756h0.457C402.789,183.963,401.764,185.557,401.764,185.557z
			 M401.081,185.67l-5.69-6.031c0,0-3.756,1.594-3.756,5.008c0,2.275,1.821,4.096,4.439,4.096
			C399.374,188.742,401.081,185.67,401.081,185.67z"/>
		<path fill="#939598" d="M409.166,188.742h-0.683v-15.934h0.683V188.742z"/>
		<path fill="#939598" d="M412.99,182.369v6.373h-0.683v-15.934h5.462c3.414,0,5.462,2.049,5.462,4.781
			c0,3.869-3.641,4.551-3.641,4.551v0.115l4.552,6.486h-0.796l-4.439-6.373H412.99z M422.55,177.59c0-2.504-1.82-4.326-4.78-4.326
			h-4.779v8.65h4.779C420.729,181.914,422.55,180.094,422.55,177.59z"/>
		<path fill="#939598" d="M426.992,182.369v6.373h-0.684v-15.934h5.462c3.415,0,5.464,2.049,5.464,4.781
			c0,3.869-3.642,4.551-3.642,4.551v0.115l4.553,6.486h-0.798l-4.438-6.373H426.992z M436.552,177.59
			c0-2.504-1.821-4.326-4.781-4.326h-4.778v8.65h4.778C434.73,181.914,436.552,180.094,436.552,177.59z"/>
		<path fill="#939598" d="M441.175,188.742h-0.683v-15.934h0.683V188.742z"/>
		<path fill="#939598" d="M457.2,186.58c0,0-1.82,2.617-5.804,2.617c-4.438,0-7.854-3.414-7.854-8.42
			c0-5.01,3.415-8.422,7.854-8.422c4.211,0,6.146,3.299,6.146,3.299l-0.342,0.229c0,0-1.82-3.074-5.804-3.074
			c-3.984,0-7.171,3.188-7.171,7.969c0,4.779,3.187,7.965,7.171,7.965c3.983,0,5.804-2.844,5.804-2.844v-4.895h-5.122v-0.455h5.805
			v8.193h-0.341l-0.229-2.162H457.2z"/>
		<path fill="#939598" d="M470.976,184.189h-8.877l-1.936,4.553h-0.568l6.828-15.934h0.455l6.829,15.934h-0.798L470.976,184.189z
			 M462.326,183.734h8.421l-4.165-9.785h-0.092L462.326,183.734z"/>
		<path fill="#939598" d="M478.99,173.264h-5.918v-0.455h12.52l-0.113,0.455h-5.805v15.479h-0.684V173.264z"/>
		<path fill="#939598" d="M488.53,188.742h-0.683v-15.934h0.683V188.742z"/>
		<path fill="#939598" d="M498.66,172.355c4.438,0,7.853,3.412,7.853,8.422c0,5.006-3.415,8.42-7.853,8.42
			c-4.439,0-7.853-3.414-7.853-8.42C490.808,175.768,494.221,172.355,498.66,172.355z M498.66,172.809
			c-3.983,0-7.17,3.188-7.17,7.969c0,4.779,3.187,7.965,7.17,7.965s7.17-3.186,7.17-7.965
			C505.83,175.996,502.644,172.809,498.66,172.809z"/>
		<path fill="#939598" d="M509.612,188.742h-0.455v-15.934h0.683l10.812,15.023h0.114v-15.023h0.455v15.934h-0.683l-10.812-15.021
			h-0.114V188.742z"/>
	</g>
	<g>
		<path fill="#8DC63F" stroke="#8DC63F" stroke-miterlimit="10" d="M163.492,141.078h-1.783V99.475h26.151l-0.297,1.188h-24.071
			v19.613h19.02l-0.297,1.189h-18.722V141.078z"/>
		<path fill="#8DC63F" stroke="#8DC63F" stroke-miterlimit="10" d="M194.219,141.078h-1.783V99.475h1.783V141.078z"/>
		<path fill="#8DC63F" stroke="#8DC63F" stroke-miterlimit="10" d="M201.47,141.078h-1.783V99.475h26.151l-0.297,1.188H201.47
			v19.613h19.02l-0.297,1.189H201.47V141.078z"/>
		<path fill="#8DC63F" stroke="#8DC63F" stroke-miterlimit="10" d="M244.5,100.662h-15.453v-1.188h32.69l-0.297,1.188h-15.156
			v40.416H244.5V100.662z"/>
		<path fill="#8DC63F" stroke="#8DC63F" stroke-miterlimit="10" d="M281.824,141.078h-1.783v-14.266l-16.047-27.338h2.08
			l15.038,25.555h0.237l15.037-25.555h1.487l-16.048,27.338V141.078z"/>
		<path fill="#006838" stroke="#006838" stroke-width="2" stroke-miterlimit="10" d="M316.058,98.285
			c8.914,0,13.669,7.43,13.669,7.43l-0.892,0.594c0,0-4.458-6.834-12.777-6.834c-7.43,0-12.185,4.754-12.185,9.508
			c0,11.293,26.745,8.322,26.745,21.397c0,6.24-5.646,11.888-14.859,11.888c-11.589,0-16.345-9.213-16.345-9.213l0.893-0.595
			c0,0,4.456,8.618,15.452,8.618c8.023,0,13.076-5.053,13.076-10.698c0-11.292-26.745-8.321-26.745-21.397
			C302.09,103.634,307.439,98.285,316.058,98.285z"/>
		<path fill="#006838" stroke="#006838" stroke-width="2" stroke-miterlimit="10" d="M339.71,118.494h27.936v-19.02h1.783v41.604
			h-1.783v-21.396H339.71v21.396h-1.782V99.475h1.782V118.494z"/>
		<path fill="#006838" stroke="#006838" stroke-width="2" stroke-miterlimit="10" d="M405.623,129.191h-23.18l-5.052,11.887h-1.486
			l17.831-41.604h1.188l17.83,41.604h-2.08L405.623,129.191z M383.037,128.002h21.992l-10.878-25.557h-0.237L383.037,128.002z"/>
		<path fill="#006838" stroke="#006838" stroke-width="2" stroke-miterlimit="10" d="M429.396,99.475
			c13.374,0,22.289,8.914,22.289,20.801c0,11.888-8.915,20.803-22.289,20.803h-10.401V99.475H429.396z M420.777,100.662v39.227
			h8.618c12.185,0,20.506-8.32,20.506-19.613s-8.321-19.613-20.506-19.613H420.777z"/>
		<path fill="#006838" stroke="#006838" stroke-width="2" stroke-miterlimit="10" d="M459.766,139.889h26.151v1.189h-27.935V99.475
			h26.745l-0.297,1.188h-24.665v18.426h18.425l-0.297,1.188h-18.128V139.889z"/>
		<path fill="#006838" stroke="#006838" stroke-width="2" stroke-miterlimit="10" d="M506.836,98.285c8.915,0,13.67,7.43,13.67,7.43
			l-0.891,0.594c0,0-4.459-6.834-12.779-6.834c-7.43,0-12.185,4.754-12.185,9.508c0,11.293,26.745,8.322,26.745,21.397
			c0,6.24-5.646,11.888-14.858,11.888c-11.59,0-16.344-9.213-16.344-9.213l0.892-0.595c0,0,4.457,8.618,15.452,8.618
			c8.024,0,13.077-5.053,13.077-10.698c0-11.292-26.748-8.321-26.748-21.397C492.867,103.634,498.218,98.285,506.836,98.285z"/>
		<path fill="#8DC63F" stroke="#8DC63F" stroke-miterlimit="10" d="M175.685,149.887c10.35,0,18.312,7.962,18.312,19.639
			c0,11.678-7.962,19.639-18.312,19.639c-10.35,0-18.312-7.961-18.312-19.639C157.373,157.849,165.335,149.887,175.685,149.887z
			 M175.685,150.947c-9.289,0-16.719,7.432-16.719,18.578s7.43,18.576,16.719,18.576c9.289,0,16.72-7.43,16.72-18.576
			S184.974,150.947,175.685,150.947z"/>
		<path fill="#8DC63F" stroke="#8DC63F" stroke-miterlimit="10" d="M198.452,188.102h-1.593v-37.154h23.354l-0.265,1.062h-21.496
			v17.517h16.985l-0.266,1.062h-16.719V188.102z"/>
		<path fill="#006838" stroke="#006838" stroke-width="2" stroke-miterlimit="10" d="M254.551,183.061c0,0-4.246,6.104-13.534,6.104
			c-10.351,0-18.312-7.961-18.312-19.639c0-11.677,7.961-19.639,18.312-19.639c9.819,0,14.331,7.697,14.331,7.697l-0.796,0.53
			c0,0-4.246-7.167-13.534-7.167c-9.289,0-16.72,7.432-16.72,18.578s7.431,18.576,16.72,18.576c9.288,0,13.534-6.633,13.534-6.633
			v-11.412h-11.942v-1.062h13.535v19.107h-0.796l-0.53-5.041H254.551z"/>
		<path fill="#006838" stroke="#006838" stroke-width="2" stroke-miterlimit="10" d="M264.103,173.24v14.861h-1.593v-37.154h12.739
			c7.961,0,12.738,4.779,12.738,11.146c0,9.023-8.492,10.615-8.492,10.615v0.266l10.616,15.127h-1.858l-10.35-14.861H264.103z
			 M286.395,162.094c0-5.837-4.247-10.085-11.146-10.085h-11.146v20.171h11.146C282.148,172.18,286.395,167.934,286.395,162.094z"/>
		<path fill="#006838" stroke="#006838" stroke-width="2" stroke-miterlimit="10" d="M297.484,187.041h23.354v1.061h-24.946v-37.154
			h23.885l-0.266,1.062h-22.027v16.456h16.454l-0.267,1.061h-16.188V187.041z"/>
		<path fill="#006838" stroke="#006838" stroke-width="2" stroke-miterlimit="10" d="M328.106,187.041h23.354v1.061h-24.946v-37.154
			h23.885l-0.266,1.062h-22.027v16.456h16.454l-0.267,1.061h-16.188V187.041z"/>
		<path fill="#006838" stroke="#006838" stroke-width="2" stroke-miterlimit="10" d="M357.987,188.102h-1.063v-37.154h1.594
			l25.211,35.031h0.266v-35.031h1.062v37.154h-1.592l-25.212-35.029h-0.265V188.102z"/>
	</g>
</g>
<g>
	<linearGradient id="SVGID_1_" gradientUnits="userSpaceOnUse" x1="55.6025" y1="143.4961" x2="148.313" y2="143.4961">
		<stop  offset="0" style="stop-color:#8DC63F"/>
		<stop  offset="1" style="stop-color:#006838"/>
	</linearGradient>
	<circle fill="url(#SVGID_1_)" cx="101.958" cy="143.496" r="46.355"/>
	<g>
		<path fill="#FFFFFF" d="M101.792,192.445c0,0,35.457-2.738,34.024-47.061c-0.237-9.51,3.261-10.038,3.261-10.038
			s-27.9-2.214-38.979,22.293c0,0-8.735,17.339-1.175,34.284c21.38-13.688,33.114-49.538,33.114-49.538
			S126.564,180.318,101.792,192.445z"/>
		<path fill="#FFFFFF" d="M93.45,169.371c0,0,10.689-20.855,5.474-29.982c-5.213-9.127-12.122-22.031-11.21-24.77
			c0.913-2.737-14.469,17.207-12.515,32.981c1.957,15.774,15.904,21.771,15.904,21.771s-14.208-24.375-6.78-40.673
			C83.803,160.115,93.45,169.371,93.45,169.371z"/>
		<path fill="#FFFFFF" d="M95.843,192.445c0,0-2.305-19.031-8.149-23.074c-5.846-4.039-19.273-13.559-19.666-16.424
			c-0.39-2.869-4.384,24.115,7,32.459c11.381,8.344,18.291,7.039,18.291,7.039s-21.441-13.766-22.424-25.289
			C85.619,186.789,95.843,192.445,95.843,192.445z"/>
	</g>
	<circle fill="none" stroke="#8DC63F" stroke-miterlimit="10" cx="101.958" cy="143.742" r="49.053"/>
</g>
</svg>
