<!--?xml version="1.0" standalone="no"?--><svg version="1.0" xmlns="http://www.w3.org/2000/svg" width="300.000000pt" height="300.000000pt" viewBox="0 0 300.000000 300.000000" preserveAspectRatio="xMidYMid meet">
<metadata>
  <rdf:rdf xmlns:rdf="http://www.w3.org/1999/02/22-rdf-syntax-ns#" xmlns:rdfs="http://www.w3.org/2000/01/rdf-schema#" xmlns:dc="http://purl.org/dc/elements/1.1/">
    <rdf:description dc:title="black leaf" dc:publisher="Hiox" dc:date="2015-03-11" dc:format="image/svg+xml" dc:language="en">
      <dc:creator>
        <rdf:bag>
          <rdf:li>svgimages.com</rdf:li>
        </rdf:bag>
      </dc:creator>
    </rdf:description>
  </rdf:rdf>
</metadata>
<g transform="translate(0.000000,300.000000) scale(0.100000,-0.100000)" fill="#272727" stroke="none">
<path class="node" id="node1" d="M2400 2801 c0 -18 -139 -149 -206 -193 -38 -25 -103 -60 -144 -77
-41 -18 -84 -36 -95 -41 -30 -13 -149 -45 -255 -69 -510 -114 -623 -147 -812
-241 -106 -52 -161 -92 -244 -175 -132 -132 -208 -273 -249 -460 -19 -88 -17
-247 4 -340 12 -54 49 -154 63 -170 5 -5 29 11 61 41 160 154 383 287 712 424
286 119 361 152 465 206 58 30 116 63 130 74 14 11 52 40 86 65 72 52 175 160
239 247 55 75 57 70 8 -14 -69 -120 -142 -214 -240 -309 -147 -143 -270 -223
-638 -414 -301 -156 -465 -262 -610 -392 -53 -48 -108 -96 -122 -107 -78 -60
-363 -443 -363 -488 0 -30 44 -91 88 -122 48 -32 111 -59 127 -52 7 2 34 47
60 98 59 117 180 300 235 356 23 23 44 42 46 42 3 0 38 -16 80 -36 344 -163
866 -107 1226 133 93 61 249 217 317 316 196 287 292 660 261 1019 -6 73 -13
135 -16 140 -3 4 -10 36 -15 70 -21 131 -158 478 -189 478 -6 0 -10 -4 -10 -9z"></path>
</g>
<g transform="translate(0.000000,300.000000) scale(0.100000,-0.100000)" fill="#FFFFFF" stroke="none">

</g>
</svg>